<svg width="335" height="237" viewBox="0 0 335 237" fill="none" xmlns="http://www.w3.org/2000/svg">
<path d="M0.706573 106.203C0.688573 124.239 10.5965 135.155 30.9815 139.301C47.9505 142.753 65.2835 144.576 81.8725 149.703C106.043 157.172 130.706 163.209 153.947 173.472C169.178 180.198 180.799 191.156 189.872 204.984C193.618 210.692 197.278 216.463 201.666 221.727C216.7 239.76 246.048 240.496 263.572 226.067C268.884 221.693 273.528 216.79 278.015 211.637C288.707 199.358 301.902 190.015 314.752 180.215C324.187 173.02 331.34 163.91 333.999 151.873C335.971 142.945 334.593 134.53 329.94 126.844C322.178 114.02 314.002 101.451 305.402 89.1616C303.275 86.1226 300.676 83.5436 297.963 81.0966C291.792 75.5296 283.148 74.7406 276.267 79.4076C272.293 82.1026 268.745 85.4326 265.059 88.5406C263.789 89.6116 262.714 90.9096 261.496 92.0456C249.593 103.145 238.222 101.715 231.364 87.0776C220.864 64.6696 205.343 46.2036 188.555 28.4986C182.495 22.1076 177.204 15.0126 170.857 8.84558C159.519 -2.17142 145.657 -3.04542 133.624 7.05658C126.621 12.9356 119.551 18.8396 113.281 25.4616C99.7875 39.7106 83.3386 46.7176 63.9496 47.2226C35.4306 47.9666 12.4945 68.2486 2.92654 92.4696C1.21054 96.8166 0.537573 101.478 0.706573 106.203ZM2.83554 105.322C2.90954 104.686 3.00855 103.019 3.30655 101.388C8.21455 74.5286 36.3656 50.3516 64.3556 49.4546C84.6606 48.8036 101.844 41.8956 115.89 26.9006C122.004 20.3736 128.978 14.6026 135.881 8.8746C147.075 -0.414398 157.991 0.194593 168.349 10.4856C172.71 14.8186 176.798 19.4326 180.909 24.0086C189.576 33.6546 198.27 43.2796 206.781 53.0626C215.926 63.5746 222.42 75.7726 228.677 88.1236C236.512 103.593 250.537 106.011 263.325 94.2696C266.754 91.1216 270.231 88.0266 273.692 84.9126C282.916 76.6136 290.117 76.3536 298.255 85.5286C311.118 100.032 320.987 116.698 330.169 133.686C333.81 140.422 333.201 147.793 330.483 155.02C326.903 164.538 320.76 172.152 312.829 178.135C299.933 187.863 286.79 197.256 276.088 209.516C271.599 214.659 267.023 219.627 261.657 223.943C243.445 238.594 219.355 236.996 203.764 219.728C199.176 214.647 195.691 208.725 191.942 203.023C182.866 189.217 171.159 178.508 156.103 171.411C138.369 163.052 119.219 158.957 100.812 152.632C85.0485 147.215 68.8185 143.428 52.3595 140.696C43.3295 139.197 34.2686 137.875 25.4676 135.217C11.5426 131.011 2.84554 119.983 2.83554 105.322Z" fill="#CFCFCF"/>
<path d="M22.7305 99.1225C21.9165 109.686 27.7705 116.22 36.2505 121.066C43.8385 125.402 52.1125 128.031 60.5315 130.08C79.9925 134.814 98.3485 142.939 117.556 148.416C126.997 151.108 136.551 153.398 146.023 155.983C167.254 161.778 184.224 173.543 196.531 191.947C200.603 198.036 205.319 203.619 210.608 208.759C223.83 221.609 244.649 219.457 254.677 203.941C261.883 192.791 262.736 180.243 262.315 167.468C262.266 165.978 261.904 164.498 261.847 163.007C261.459 152.896 256.594 145.745 247.635 141.222C243.177 138.972 238.708 136.734 234.34 134.317C221.662 127.302 217.205 114.971 213.764 102.056C210.59 90.1405 207.476 78.2135 200.913 67.5695C191.384 52.1145 179.618 38.6065 164.956 27.8785C155.067 20.6435 142.878 21.5095 132.017 29.6535C125.366 34.6405 118.758 39.7235 112.495 45.1805C100.101 55.9805 85.5305 60.4935 69.4265 61.2905C56.5525 61.9275 44.3664 64.6785 34.4554 73.7985C27.0284 80.6335 22.0585 88.5425 22.7305 99.1225ZM24.7955 98.6175C24.7595 89.4675 29.4755 82.4115 35.9455 76.2715C45.7015 67.0135 57.8825 64.0435 70.7805 63.4375C87.2475 62.6635 102.116 58.1005 114.747 47.0045C120.987 41.5225 127.602 36.4395 134.284 31.4955C145.298 23.3475 154.89 23.3965 164.958 31.2095C174.353 38.5005 182.183 47.3175 189.793 56.3755C201.347 70.1265 207.356 86.3725 211.579 103.526C214.905 117.037 219.814 129.697 233.074 136.853C237.176 139.067 241.353 141.145 245.525 143.225C254.516 147.709 259.034 154.862 259.861 164.965C260.314 170.494 260.069 175.906 259.582 181.329C258.856 189.413 256.341 196.968 251.521 203.613C241.823 216.982 224.69 218.367 212.857 206.962C207.426 201.727 202.639 195.991 198.453 189.775C186.309 171.74 169.712 159.976 148.841 154.178C141.306 152.085 133.713 150.197 126.138 148.249C104.672 142.728 84.4434 133.336 62.8724 128.108C54.2944 126.029 45.8355 123.395 38.1175 118.939C30.3855 114.473 24.6345 108.606 24.7955 98.6175Z" fill="#CFCFCF"/>
<path d="M186.914 149.368C195.917 149.428 197.612 148.658 197.972 140.088C198.933 117.201 198.263 94.4186 186.014 73.8556C180.566 64.7096 173.29 57.1576 164.664 51.0256C154.366 43.7046 140.141 44.7506 128.28 53.4216C123.04 57.2526 117.898 61.2236 112.822 65.2706C101.721 74.1216 88.7504 77.7236 74.9404 79.3086C69.3344 79.9516 63.7364 80.9556 58.6804 83.8406C50.0584 88.7606 48.8904 98.9786 56.2954 105.604C59.0394 108.059 62.0354 110.217 65.4334 111.648C80.0144 117.789 94.3544 124.456 108.725 131.067C119.521 136.034 131.092 138.514 142.794 140.59C155.903 142.916 168.885 145.962 181.931 148.647C184.039 149.082 186.199 149.268 186.914 149.368ZM148.981 48.2566C150.388 48.5516 152.413 48.7356 154.263 49.4036C170.591 55.2956 180.201 68.1056 187.626 82.7806C195.851 99.0356 195.88 116.968 196.433 134.547C196.821 146.899 193.814 148.674 181.467 146.124C172.171 144.204 162.938 141.968 153.619 140.171C139.062 137.364 124.28 135.356 110.686 129.023C96.3424 122.341 81.9844 115.706 67.3924 109.578C64.1504 108.217 61.2874 106.164 58.6394 103.847C51.7124 97.7875 52.4614 90.6816 60.4364 86.0256C65.4684 83.0876 71.0734 82.1145 76.6814 81.4365C90.1054 79.8125 102.876 76.6076 113.771 68.0206C119.001 63.8986 124.294 59.8476 129.69 55.9476C135.275 51.9116 141.273 48.7246 148.981 48.2566Z" fill="#CFCFCF"/>
<path d="M230.814 179.567C230.772 171.525 222.6 163.331 215.043 163.382C211.233 163.408 209.47 165.611 209.83 169.145C210.54 176.099 213.814 181.811 219.432 185.95C221.964 187.815 225.172 188.074 228 186.659C231.002 185.157 230.73 181.998 230.814 179.567ZM214.776 165.963C221.205 166.085 228.936 174.303 228.603 179.815C228.325 184.416 225.262 186.417 221.618 184.031C216.525 180.696 213.741 175.584 212.317 169.801C211.743 167.469 213.054 166.023 214.776 165.963Z" fill="#CFCFCF"/>
<path d="M153.082 123.419C159.762 123.317 165.616 123.567 170.416 119.203C177.893 112.406 177.758 103.936 175.628 95.2014C174.074 88.8294 171.129 83.0914 166.352 78.3434C156.023 68.0764 144.986 67.2484 133.236 75.9484C126.886 80.6504 122.469 86.8024 119.507 94.0104C116.149 102.18 118.706 110.475 126.051 115.503C134.443 121.249 143.805 123.706 153.082 123.419ZM155.366 121.361C144.212 121.205 135.201 118.672 127.253 112.906C120.606 108.084 119.024 101.364 122.436 93.9974C125.888 86.5434 131.064 80.6144 137.831 76.0224C144.92 71.2114 152.232 71.1694 159.265 76.0454C165.78 80.5624 169.93 86.7704 172.73 94.1784C178.289 108.882 170.351 122.443 155.366 121.361Z" fill="#CFCFCF"/>
</svg>
