<svg width="359" height="162" viewBox="0 0 359 162" fill="none" xmlns="http://www.w3.org/2000/svg">
<path d="M0.0497207 116.724C-0.475279 109.89 3.20165 100.804 8.97965 92.314C19.4017 77.002 30.9567 62.6619 44.0307 49.4939C52.1277 41.3379 58.6687 31.806 65.6307 22.685C76.4507 8.50799 91.4297 2.70801 108.374 0.835011C145.7 -3.28999 179.019 8.22497 210.229 27.498C215.314 30.638 220.092 34.295 224.469 38.436C229.674 43.36 233.546 49.089 235.254 56.092C237.814 66.586 242.539 76.031 248.345 85.086C252.833 92.085 257.017 99.312 260.849 106.69C269.371 123.102 283.176 131.605 300.939 134.867C313.371 137.15 325.9 139.008 337.886 143.415C345.848 146.342 352.054 151.353 357.424 157.646C358.232 158.593 359.423 159.847 358.092 161.11C357.411 161.757 356.53 160.897 356.025 160.248C344.108 144.894 326.491 142.086 309.054 138.858C295.766 136.399 282.439 134.13 271.517 125.075C268.113 122.252 265.302 118.935 263.08 115.306C255.26 102.532 247.748 89.568 240.221 76.616C237.278 71.551 235.14 66.113 233.924 60.363C230.904 46.086 220.621 37.676 209.323 30.264C190.178 17.703 169.377 8.91799 146.869 4.56499C127.814 0.879991 108.855 0.746 90.3086 7.674C79.5996 11.674 71.4357 18.8499 64.9947 28.0109C54.9007 42.3679 42.5586 54.758 30.9756 67.826C21.6856 78.306 13.3947 89.644 6.56669 101.867C0.826689 112.143 1.73667 123.418 3.82267 134.559C5.26267 142.25 6.91165 149.902 8.35465 157.593C8.56365 158.708 9.56367 160.577 7.71867 160.945C6.34067 161.22 6.37865 159.361 6.13065 158.294C3.22565 145.804 0.477721 133.286 0.0497207 116.724Z" fill="#CFCFCF"/>
<path d="M127.216 12.7868C148.393 13.2798 168.613 16.8849 185.865 30.4699C193.453 36.4459 198.258 44.3018 201.584 53.1568C203.516 58.2998 205.261 63.5278 206.808 68.7998C210.931 82.8538 218.308 94.9958 228.491 105.379C236.421 113.465 244.038 121.803 251.477 130.341C261.515 141.862 274.378 149.021 289.122 152.703C298.814 155.123 308.613 157.114 318.346 159.374C319.323 159.601 321.148 159.385 320.837 161.068C320.648 162.089 319.137 161.918 318.199 161.709C303.585 158.456 288.635 156.451 274.724 150.525C263.319 145.667 254.091 138.072 246.158 128.499C238.739 119.546 230.665 111.112 222.575 102.745C214.488 94.3808 209.464 84.3778 205.723 73.5818C203.323 66.6558 201.279 59.5948 198.627 52.7688C193.336 39.1508 183.283 29.7888 170.246 23.9818C151.92 15.8198 132.672 12.9128 112.674 16.0978C98.7575 18.3148 86.8065 24.4348 78.3035 35.6118C64.5995 53.6278 50.9776 71.8068 42.3156 93.0088C38.2646 102.925 35.5785 113.283 34.6005 123.936C33.5695 135.169 36.8296 145.679 41.3216 155.856C42.0076 157.41 44.1375 159.679 42.2875 160.641C40.2935 161.678 39.7076 158.634 39.0206 157.148C32.4566 142.955 30.5695 128.191 33.8075 112.815C37.3875 95.8188 43.7556 80.0148 53.7236 65.7328C62.0996 53.7328 69.3026 40.9218 79.4196 30.1328C90.6796 18.1238 105.029 13.9718 120.718 12.8078C122.874 12.6488 125.05 12.7868 127.216 12.7868Z" fill="#CFCFCF"/>
<path d="M132.003 25.8878C139.08 25.3888 145.821 26.0878 152.505 27.8118C169.947 32.3098 180.81 43.3668 185.291 60.6658C188.309 72.3168 189.8 84.1577 189.478 96.2657C189.274 103.961 186.071 109.66 179.303 112.67C167.1 118.096 155.331 124.298 143.895 131.132C129.921 139.483 114.974 140.313 99.4415 137.623C94.1935 136.714 88.9415 135.801 83.6655 135.082C61.0075 131.992 55.3365 117.77 58.9575 99.1678C63.2075 77.3368 73.6946 57.9568 88.5866 41.6238C99.9386 29.1738 115.298 24.5568 132.003 25.8878ZM187.365 92.7748C187.268 80.4458 185.41 70.2838 182.534 60.3768C177.825 44.1558 166.934 34.2118 150.583 29.8788C141.384 27.4418 132.057 27.3278 122.821 28.1468C110.167 29.2698 98.6566 34.3468 90.2886 43.9078C76.1946 60.0108 66.3306 78.6528 61.2376 99.5698C56.9956 116.995 65.8475 129.911 83.6345 132.707C89.5475 133.637 95.5086 134.339 101.363 135.557C117.592 138.934 132.306 135.425 146.155 126.675C154.734 121.254 163.679 116.333 173.113 112.608C183.27 108.599 188.63 102.062 187.365 92.7748Z" fill="#CFCFCF"/>
<path d="M166.817 140.749C177.615 140.189 183.986 150.648 185.971 158.528C186.172 159.325 186.335 160.339 185.355 160.649C184.309 160.98 183.954 159.937 183.668 159.205C181.964 154.833 179.997 150.688 176.427 147.407C172.292 143.607 167.651 142.305 162.168 143.407C157.023 144.441 152.438 146.776 147.828 149.109C139.509 153.32 131.224 157.611 122.385 160.674C121.132 161.108 119.832 161.456 118.525 161.657C117.948 161.746 116.945 161.547 116.751 161.165C116.221 160.124 117.243 159.776 117.974 159.493C120.611 158.469 123.351 157.674 125.906 156.481C134.202 152.608 142.445 148.62 150.686 144.629C155.548 142.275 160.606 140.781 166.817 140.749Z" fill="#CFCFCF"/>
<path d="M214.901 158.519C215.822 150.087 221.224 146.842 228.942 150.287C233.51 152.326 237.335 155.584 241.301 158.576C242.07 159.156 243.045 160.011 242.19 161.008C241.369 161.965 240.332 161.146 239.544 160.611C236.667 158.656 233.873 156.576 230.973 154.658C223.118 149.463 220.983 150.11 217.402 158.639C216.979 159.646 216.905 161.238 215.287 160.751C214.407 160.485 214.812 159.319 214.901 158.519Z" fill="#CFCFCF"/>
<path d="M165.423 71.3509C166.295 89.2329 154.781 99.7509 142.695 110.148C127.754 123.001 102.381 118.943 90.2147 106.318C84.8477 100.748 83.5287 93.9919 84.4167 86.9039C87.9337 58.8489 106.857 40.1229 136.243 40.8519C151.445 41.2289 161.137 48.5088 164.701 61.4068C165.611 64.6958 165.265 68.0189 165.423 71.3509ZM163.263 71.6939C163.731 50.7989 148.782 42.0689 131.784 43.2099C105.007 45.0079 90.1767 63.3818 86.5727 88.0138C85.8277 93.1028 87.1308 98.1118 90.3938 102.15C100.033 114.081 122.484 122.193 139.328 109.183C144.505 105.185 149.348 100.84 153.548 95.9168C159.488 88.9558 163.87 81.1459 163.263 71.6939Z" fill="#CFCFCF"/>
</svg>
