<svg width="368" height="234" viewBox="0 0 368 234" fill="none" xmlns="http://www.w3.org/2000/svg">
<path d="M240.683 233.032C222.904 235.493 209.226 226.924 196.532 215.542C188.86 208.663 180.618 202.419 172.929 195.558C166.08 189.447 160.483 182.188 155.318 174.591C149.882 166.596 144.295 158.741 135.911 153.37C119.17 142.646 103.055 145.165 87.1968 155.335C83.9748 157.402 80.7738 159.515 77.4538 161.414C67.7058 166.987 57.6318 166.826 47.7438 162.14C35.2608 156.224 22.9688 149.902 10.6568 143.634C6.61785 141.578 2.9588 138.963 0.973801 134.602C-1.1632 129.905 0.256843 125.569 4.84184 123.255C7.55184 121.887 10.4338 121.144 13.5068 121.178C17.1718 121.218 20.8528 120.966 24.5008 121.216C41.6868 122.391 48.0518 112.533 49.6198 97.9854C51.4018 81.4534 52.0958 64.7934 56.6488 48.6574C59.3188 39.1934 61.9528 29.7284 66.4398 20.9064C75.5688 2.95938 90.6398 -3.50559 110.129 1.79341C121.372 4.85041 128.083 13.0054 133.64 22.2164C142.012 36.0914 152.8 47.6844 165.012 58.1634C173.763 65.6724 180.718 74.8874 188.086 83.6784C198.147 95.6834 210.232 103.073 226.391 104.427C244.219 105.92 261.851 104.897 278.872 100.41C302.798 94.1034 324.685 98.1864 345.933 109.316C350.928 111.932 356.356 113.761 360.711 117.574C369.108 124.925 370.275 134.669 363.691 143.768C358.776 150.561 352.541 156.11 346.462 161.793C326.655 180.31 303.992 195.503 285.145 215.197C273.328 227.542 258.953 235.246 240.683 233.032ZM22.7948 123.304C18.2828 123.566 13.0718 122.603 8.09483 124.711C1.96683 127.306 1.00982 131.318 5.44682 136.308C7.35882 138.458 9.70681 140.081 12.2288 141.357C24.8528 147.742 37.4688 154.15 50.1988 160.319C58.5108 164.347 66.9138 164.473 75.0468 159.58C78.4688 157.522 81.8518 155.398 85.2298 153.267C100.066 143.907 115.564 140.741 132.209 148.201C143.348 153.194 150.535 162.317 157.055 172.1C162.242 179.882 167.934 187.279 174.915 193.499C182.484 200.243 190.361 206.647 198.207 213.072C205.266 218.853 211.763 225.628 220.82 228.32C244.276 235.292 265.568 231.593 282.817 213.523C301.867 193.566 324.768 178.145 344.838 159.433C350.799 153.876 356.885 148.407 361.68 141.729C367.586 133.504 366.786 126.948 359.354 120.164C354.805 116.012 349.09 114.032 343.788 111.303C323.479 100.851 302.758 96.3284 279.714 102.685C261.942 107.588 243.37 108.065 224.739 106.555C208.2 105.214 195.947 97.5684 185.689 85.2384C178.464 76.5544 171.522 67.5654 162.937 60.1074C154.251 52.5614 146.021 44.6314 139.083 35.3664C133.013 27.2604 128.656 17.9474 121.042 10.9094C109.981 0.684435 92.0708 -0.54859 80.0178 8.35841C70.9148 15.0864 67.0828 25.0544 63.4278 35.0774C55.9398 55.6084 53.5408 77.0704 51.8028 98.6954C50.5108 114.775 43.4858 124.772 25.4008 123.31C24.7398 123.258 24.0698 123.304 22.7948 123.304Z" fill="#A1C0C7"/>
<path d="M249.458 213.325C243.675 212.98 237.268 211.751 231.383 208.871C216.816 201.741 203.29 192.993 191.163 182.147C184.417 176.113 179.185 168.763 176.597 160.334C170.697 141.116 156.572 132.173 138.506 127.462C127.225 124.52 115.936 121.61 104.637 118.74C85.9828 114.002 77.3718 104.826 75.0588 85.6715C73.1308 69.7055 74.8958 54.1295 82.5768 39.5885C88.2088 28.9255 98.9958 25.6735 109.639 31.4275C114.988 34.3195 119.499 38.2675 123.864 42.3375C133.853 51.6515 144.555 60.1105 154.949 68.9415C165.408 77.8275 172.74 89.1105 178.862 101.266C181.18 105.867 183.683 110.321 187.205 114.231C193.569 121.296 201.466 122.661 210.368 121.618C228.859 119.453 247.262 116.471 265.946 116.084C272.908 115.94 279.843 114.616 286.808 114.416C300.539 114.022 313.891 115.615 324.547 125.55C332.109 132.6 332.854 139.895 327.369 148.862C322.751 156.413 317.463 163.567 311.38 169.917C299.872 181.931 288.545 194.201 275.162 204.248C267.8 209.774 259.596 213.185 249.458 213.325ZM76.8558 74.7976C76.8558 75.6306 76.8378 76.4635 76.8588 77.2965C77.4118 99.4075 86.8038 113.038 107.766 117.033C120.197 119.402 132.356 122.987 144.503 126.569C161.058 131.451 172.937 140.898 178.466 157.949C181.189 166.347 186.29 173.672 192.88 179.876C203.289 189.675 215.459 196.902 227.646 204.071C244.849 214.19 261.176 212.83 276.521 199.761C288.208 189.807 298.97 178.903 309.477 167.772C315.4 161.497 320.594 154.499 325.168 147.122C330.199 139.008 329.724 134.62 323.062 128.043C316.508 121.573 308.293 118.873 299.417 117.22C292.372 115.908 285.483 117.018 278.557 117.378C266.614 117.999 254.674 118.875 242.774 120.053C231.524 121.166 220.352 123.075 209.099 124.134C199.034 125.08 189.728 123.032 183.378 114.193C180.866 110.696 178.738 106.891 176.732 103.07C170.818 91.8045 164.236 81.0546 154.568 72.5216C143.723 62.9496 132.182 54.1935 121.657 44.2375C117.684 40.4795 113.573 36.8355 108.713 34.1145C98.9678 28.6585 90.1358 31.2405 84.8468 41.1685C79.2378 51.6945 76.6798 62.9146 76.8558 74.7976Z" fill="#A1C0C7"/>
<path d="M253.225 191.299C239.282 191.288 223.608 180.226 218.905 167.076C215.637 157.938 219.385 148.771 229.492 141.454C235.414 137.167 242.156 134.721 249.334 133.889C258.91 132.779 268.58 132.043 278.017 134.848C290.251 138.485 294.786 147.159 291.595 159.412C288.35 171.866 268.591 193.006 253.225 191.299ZM253.934 189.276C255.175 189.034 257.204 188.888 259.054 188.236C273.058 183.299 282.445 173.32 288.529 160.17C293.867 148.632 286.84 141.166 278.679 137.764C271.176 134.636 263.303 134.888 255.551 135.436C243.589 136.281 232.793 140.24 224.791 149.813C220.285 155.203 218.54 160.95 222.021 167.729C225.566 174.632 230.991 179.672 237.304 183.772C242.067 186.865 247.363 188.914 253.934 189.276Z" fill="#A1C0C7"/>
</svg>
