<svg width="335" height="237" viewBox="0 0 335 237" fill="none" xmlns="http://www.w3.org/2000/svg">
<path d="M334.165 106.203C334.183 124.239 324.275 135.155 303.89 139.301C286.921 142.753 269.588 144.576 252.999 149.703C228.829 157.172 204.166 163.209 180.925 173.472C165.694 180.198 154.073 191.156 145 204.984C141.254 210.692 137.594 216.463 133.206 221.727C118.172 239.76 88.8235 240.496 71.2995 226.067C65.9875 221.693 61.3435 216.79 56.8565 211.637C46.1645 199.358 32.9696 190.015 20.1196 180.215C10.6846 173.02 3.53154 163.91 0.872541 151.873C-1.09946 142.945 0.278562 134.53 4.93156 126.844C12.6936 114.02 20.8695 101.451 29.4695 89.1616C31.5965 86.1226 34.1956 83.5436 36.9086 81.0966C43.0796 75.5296 51.7235 74.7406 58.6045 79.4076C62.5785 82.1026 66.1265 85.4326 69.8125 88.5406C71.0825 89.6116 72.1575 90.9096 73.3755 92.0456C85.2785 103.145 96.6496 101.715 103.508 87.0776C114.008 64.6696 129.529 46.2036 146.317 28.4986C152.377 22.1076 157.668 15.0126 164.015 8.84558C175.353 -2.17142 189.215 -3.04542 201.248 7.05658C208.251 12.9356 215.321 18.8396 221.591 25.4616C235.084 39.7106 251.533 46.7176 270.922 47.2226C299.441 47.9666 322.377 68.2486 331.945 92.4696C333.661 96.8166 334.334 101.478 334.165 106.203ZM332.036 105.322C331.962 104.686 331.863 103.019 331.565 101.388C326.657 74.5286 298.506 50.3516 270.516 49.4546C250.211 48.8036 233.028 41.8956 218.982 26.9006C212.868 20.3736 205.894 14.6026 198.991 8.8746C187.797 -0.414398 176.881 0.194593 166.523 10.4856C162.162 14.8186 158.074 19.4326 153.963 24.0086C145.296 33.6546 136.602 43.2796 128.091 53.0626C118.946 63.5746 112.452 75.7726 106.195 88.1236C98.3596 103.593 84.3346 106.011 71.5466 94.2696C68.1176 91.1216 64.6405 88.0266 61.1795 84.9126C51.9555 76.6136 44.7546 76.3536 36.6166 85.5286C23.7536 100.032 13.8846 116.698 4.70256 133.686C1.06156 140.422 1.67053 147.793 4.38853 155.02C7.96853 164.538 14.1115 172.152 22.0425 178.135C34.9385 187.863 48.0816 197.256 58.7836 209.516C63.2726 214.659 67.8485 219.627 73.2145 223.943C91.4265 238.594 115.517 236.996 131.108 219.728C135.696 214.647 139.181 208.725 142.93 203.023C152.006 189.217 163.713 178.508 178.769 171.411C196.503 163.052 215.653 158.957 234.06 152.632C249.823 147.215 266.053 143.428 282.512 140.696C291.542 139.197 300.603 137.875 309.404 135.217C323.329 131.011 332.026 119.983 332.036 105.322Z" fill="#0F5712"/>
<path d="M312.141 99.1225C312.955 109.686 307.101 116.22 298.621 121.066C291.033 125.402 282.759 128.031 274.34 130.08C254.879 134.814 236.523 142.939 217.315 148.416C207.874 151.108 198.32 153.398 188.848 155.983C167.617 161.778 150.647 173.543 138.34 191.947C134.268 198.036 129.552 203.619 124.263 208.759C111.041 221.609 90.2216 219.457 80.1936 203.941C72.9876 192.791 72.1346 180.243 72.5556 167.468C72.6046 165.978 72.9666 164.498 73.0236 163.007C73.4116 152.896 78.2767 145.745 87.2357 141.222C91.6937 138.972 96.1626 136.734 100.531 134.317C113.209 127.302 117.666 114.971 121.107 102.056C124.281 90.1405 127.395 78.2135 133.958 67.5695C143.487 52.1145 155.253 38.6065 169.915 27.8785C179.804 20.6435 191.993 21.5095 202.854 29.6535C209.505 34.6405 216.113 39.7235 222.376 45.1805C234.77 55.9805 249.341 60.4935 265.445 61.2905C278.319 61.9275 290.505 64.6785 300.416 73.7985C307.843 80.6335 312.813 88.5425 312.141 99.1225ZM310.076 98.6175C310.112 89.4675 305.396 82.4115 298.926 76.2715C289.17 67.0135 276.989 64.0435 264.091 63.4375C247.624 62.6635 232.755 58.1005 220.124 47.0045C213.884 41.5225 207.269 36.4395 200.587 31.4955C189.573 23.3475 179.981 23.3965 169.913 31.2095C160.518 38.5005 152.688 47.3175 145.078 56.3755C133.524 70.1265 127.515 86.3725 123.292 103.526C119.966 117.037 115.057 129.697 101.797 136.853C97.6946 139.067 93.5176 141.145 89.3456 143.225C80.3546 147.709 75.8366 154.862 75.0097 164.965C74.5567 170.494 74.8016 175.906 75.2886 181.329C76.0146 189.413 78.5296 196.968 83.3496 203.613C93.0476 216.982 110.181 218.367 122.014 206.962C127.445 201.727 132.232 195.991 136.418 189.775C148.562 171.74 165.159 159.976 186.03 154.178C193.565 152.085 201.158 150.197 208.733 148.249C230.199 142.728 250.428 133.336 271.999 128.108C280.577 126.029 289.036 123.395 296.754 118.939C304.486 114.473 310.237 108.606 310.076 98.6175Z" fill="#0F5712"/>
<path d="M147.957 149.368C138.954 149.428 137.259 148.658 136.899 140.088C135.938 117.201 136.608 94.4186 148.857 73.8556C154.305 64.7096 161.581 57.1576 170.207 51.0256C180.505 43.7046 194.73 44.7506 206.591 53.4216C211.831 57.2526 216.973 61.2236 222.049 65.2706C233.15 74.1216 246.121 77.7236 259.931 79.3086C265.537 79.9516 271.135 80.9556 276.191 83.8406C284.813 88.7606 285.981 98.9786 278.576 105.604C275.832 108.059 272.836 110.217 269.438 111.648C254.857 117.789 240.517 124.456 226.146 131.067C215.35 136.034 203.779 138.514 192.077 140.59C178.968 142.916 165.986 145.962 152.94 148.647C150.832 149.082 148.672 149.268 147.957 149.368ZM185.89 48.2566C184.483 48.5516 182.458 48.7356 180.608 49.4036C164.28 55.2956 154.67 68.1056 147.245 82.7806C139.02 99.0356 138.991 116.968 138.438 134.547C138.05 146.899 141.057 148.674 153.404 146.124C162.7 144.204 171.933 141.968 181.252 140.171C195.809 137.364 210.591 135.356 224.185 129.023C238.529 122.341 252.887 115.706 267.479 109.578C270.721 108.217 273.584 106.164 276.232 103.847C283.159 97.7875 282.41 90.6816 274.435 86.0256C269.403 83.0876 263.798 82.1145 258.19 81.4365C244.766 79.8125 231.995 76.6076 221.1 68.0206C215.87 63.8986 210.577 59.8476 205.181 55.9476C199.596 51.9116 193.598 48.7246 185.89 48.2566Z" fill="#0F5712"/>
<path d="M104.057 179.567C104.099 171.525 112.271 163.331 119.828 163.382C123.638 163.408 125.401 165.611 125.041 169.145C124.331 176.099 121.057 181.811 115.439 185.95C112.907 187.815 109.699 188.074 106.871 186.659C103.869 185.157 104.141 181.998 104.057 179.567ZM120.095 165.963C113.666 166.085 105.935 174.303 106.268 179.815C106.546 184.416 109.609 186.417 113.253 184.031C118.346 180.696 121.13 175.584 122.554 169.801C123.128 167.469 121.817 166.023 120.095 165.963Z" fill="#0F5712"/>
<path d="M181.789 123.419C175.109 123.317 169.255 123.567 164.455 119.203C156.978 112.406 157.113 103.936 159.243 95.2014C160.797 88.8294 163.742 83.0914 168.519 78.3434C178.848 68.0764 189.885 67.2484 201.635 75.9484C207.985 80.6504 212.402 86.8024 215.364 94.0104C218.722 102.18 216.165 110.475 208.82 115.503C200.428 121.249 191.066 123.706 181.789 123.419ZM179.505 121.361C190.659 121.205 199.67 118.672 207.618 112.906C214.265 108.084 215.847 101.364 212.435 93.9974C208.983 86.5434 203.807 80.6144 197.04 76.0224C189.951 71.2114 182.639 71.1694 175.606 76.0454C169.091 80.5624 164.941 86.7704 162.141 94.1784C156.582 108.882 164.52 122.443 179.505 121.361Z" fill="#0F5712"/>
</svg>
