<svg width="900" height="422" viewBox="0 0 900 422" fill="none" xmlns="http://www.w3.org/2000/svg">
<g clip-path="url(#clip0_511_3)">
<path d="M0 68L75 76.2C150 84.3 300 100.7 450 96.8C600 93 750 69 825 57L900 45V-28H825C750 -28 600 -28 450 -28C300 -28 150 -28 75 -28H0V68Z" fill="white"/>
<path d="M0 108L75 112.5C150 117 300 126 450 118.5C600 111 750 87 825 75L900 63V43L825 55C750 67 600 91 450 94.8C300 98.7 150 82.3 75 74.2L0 66V108Z" fill="#EFEFEF"/>
<path d="M0 135L75 143.3C150 151.7 300 168.3 450 164.7C600 161 750 137 825 125L900 113V61L825 73C750 85 600 109 450 116.5C300 124 150 115 75 110.5L0 106V135Z" fill="#DFDFDF"/>
<path d="M0 171L75 177C150 183 300 195 450 189C600 183 750 159 825 147L900 135V111L825 123C750 135 600 159 450 162.7C300 166.3 150 149.7 75 141.3L0 133V171Z" fill="#CFCFCF"/>
<path d="M0 198L75 204.8C150 211.7 300 225.3 450 221.7C600 218 750 197 825 186.5L900 176V133L825 145C750 157 600 181 450 187C300 193 150 181 75 175L0 169V198Z" fill="#C0C0C0"/>
<path d="M0 225L75 228.8C150 232.7 300 240.3 450 233.7C600 227 750 206 825 195.5L900 185V174L825 184.5C750 195 600 216 450 219.7C300 223.3 150 209.7 75 202.8L0 196V225Z" fill="#C0C0C0"/>
<path d="M0 234L75 240C150 246 300 258 450 252C600 246 750 222 825 210L900 198V183L825 193.5C750 204 600 225 450 231.7C300 238.3 150 230.7 75 226.8L0 223V234Z" fill="#C0C0C0"/>
<path d="M0 261L75 267.8C150 274.7 300 288.3 450 283.8C600 279.3 750 256.7 825 245.3L900 234V196L825 208C750 220 600 244 450 250C300 256 150 244 75 238L0 232V261Z" fill="#CFCFCF"/>
<path d="M0 302L75 307.2C150 312.3 300 322.7 450 316.7C600 310.7 750 288.3 825 277.2L900 266V232L825 243.3C750 254.7 600 277.3 450 281.8C300 286.3 150 272.7 75 265.8L0 259V302Z" fill="#DFDFDF"/>
<path d="M0 315L75 321C150 327 300 339 450 333C600 327 750 303 825 291L900 279V264L825 275.2C750 286.3 600 308.7 450 314.7C300 320.7 150 310.3 75 305.2L0 300V315Z" fill="#EFEFEF"/>
<path d="M0 423H75C150 423 300 423 450 423C600 423 750 423 825 423H900V277L825 289C750 301 600 325 450 331C300 337 150 325 75 319L0 313V423Z" fill="white"/>
</g>
<defs>
<clipPath id="clip0_511_3">
<rect width="900" height="422" fill="white"/>
</clipPath>
</defs>
</svg>
